# xmcd
#
# Track frame offsets: 
#        150
#        17804
#        41475
#        66240
#        86601
#        100871
#        122939
#        146028
#        166111
#        190586
#        215632
#        239722
#        264227
#        284356
#        311496
#
# Disc length: 4342 seconds
#
# Revision: 1
# Processed by: cddbd v1.5.2PL0 Copyright (c) Steve Scherf et al.
# Submitted via: ExactAudioCopyFreeDBPlugin 1.0
#
DISCID=d910f40f
DTITLE=Andre Gagnon - The Complete Best
DYEAR=2009
DGENRE=New Age
TTITLE0=めぐり逢い
TTITLE1=風の道
TTITLE2=セピア色の写真
TTITLE3=明日
TTITLE4=愛につつまれて
TTITLE5=冬の景色
TTITLE6=小さい春
TTITLE7=溢れる愛のなかでも
TTITLE8=かすかな予感
TTITLE9=夜の舗道
TTITLE10=潮騒
TTITLE11=遠い夕陽
TTITLE12=踊りつかれて
TTITLE13=黄昏に
TTITLE14=永遠に
EXTD=YEAR: 2009
EXTT0=
EXTT1=
EXTT2=
EXTT3=
EXTT4=
EXTT5=
EXTT6=
EXTT7=
EXTT8=
EXTT9=
EXTT10=
EXTT11=
EXTT12=
EXTT13=
EXTT14=
PLAYORDER=
